<mxfile host="app.diagrams.net" modified="2024-06-25T15:43:22.346Z" agent="Mozilla/5.0 (Windows NT 10.0; Win64; x64) AppleWebKit/537.36 (KHTML, like Gecko) Chrome/126.0.0.0 Safari/537.36" version="24.6.3" etag="VK55Yu85LQDdzWAHMi-b" type="github">
  <diagram name="第 1 页" id="WHP-QuFm0HZZ76ekT1Pd">
    <mxGraphModel>
      <root>
        <mxCell id="0" />
        <mxCell id="1" parent="0" />
      </root>
    </mxGraphModel>
  </diagram>
</mxfile>
